<svg width="61" height="33" viewBox="0 0 61 33" fill="none" xmlns="http://www.w3.org/2000/svg">
<path fill-rule="evenodd" clip-rule="evenodd" d="M26.1012 28.5613C23.5171 30.7389 20.1026 32.0644 16.5034 32.0644C8.01319 32.0644 1.2072 25.0572 1.2072 16.4646C1.2072 7.848 8.01319 0.84082 16.5034 0.84082C22.1329 0.84082 27.0243 3.96557 29.7003 8.70008C30.0694 8.79483 30.3464 8.88958 30.7152 8.98434C28.0394 3.68166 22.6867 0.0834961 16.5034 0.0834961C7.64379 0.0834961 0.46875 7.37458 0.46875 16.4646C0.46875 25.5313 7.64413 32.9168 16.5034 32.9168C20.6564 32.9168 24.4399 31.2127 27.301 28.5613H26.1012Z" fill="#CCCCCC"/>
<path fill-rule="evenodd" clip-rule="evenodd" d="M18.5342 27.8042H60.4086V21.3652H18.5342V27.8042Z" fill="#CCCCCC"/>
<path fill-rule="evenodd" clip-rule="evenodd" d="M20.6556 9.83592L20.4709 10.6884H18.4406C17.8869 16.7487 17.5178 21.6484 17.1488 23.9214C16.3183 27.993 12.6268 30.2653 10.2274 30.2653C9.39698 30.2653 8.38184 29.887 8.38184 28.8454C8.38184 28.2773 8.84324 27.8039 9.39698 27.8039C10.2274 27.8039 10.8735 28.4664 11.3349 29.2238C12.6271 28.4664 12.8115 27.8039 13.3652 25.1522C13.6423 23.9214 14.3804 15.1386 14.7494 10.6884H13.0882L13.2729 9.83592H14.9341L15.1188 8.32128C16.0416 2.7347 20.0099 2.07178 21.4868 2.07178C22.2249 2.07178 23.7014 2.45044 23.7014 3.49202C23.7014 4.15459 23.1477 4.43885 22.5939 4.43885C21.5788 4.43885 21.1174 3.87068 20.6556 3.01826C18.9944 3.77593 18.7177 7.94227 18.533 9.83557H20.6556V9.83592ZM20.4713 17.6004C20.4713 13.1505 23.24 9.26811 27.9464 9.26811C30.8998 9.26811 32.5603 10.594 32.5603 13.5292C32.5603 17.9794 29.7919 21.7435 25.0853 21.7435C22.1325 21.7435 20.4713 20.4177 20.4713 17.6004ZM28.7771 14.1921C28.7771 13.0558 28.6848 10.31 27.0239 10.31C24.6245 10.31 24.2551 15.1389 24.2551 16.9382C24.2551 17.9798 24.3475 20.797 26.0084 20.797C28.4077 20.7967 28.7771 15.991 28.7771 14.1921ZM33.5758 17.6004C33.5758 13.1505 36.4369 9.26811 41.1433 9.26811C44.0044 9.26811 45.7343 10.594 45.7343 13.5292C45.7343 17.9794 42.8965 21.7435 38.1902 21.7435C35.3291 21.7435 33.5758 20.4177 33.5758 17.6004ZM41.9737 14.1921C41.9737 13.0558 41.8817 10.31 40.2205 10.31C37.7288 10.31 37.4521 15.1389 37.4521 16.9382C37.4521 17.9798 37.4521 20.797 39.113 20.797C41.6043 20.7967 41.9737 15.991 41.9737 14.1921ZM60.039 20.3233C58.3774 21.0806 56.3471 21.7432 54.9633 21.7432C54.2252 21.7432 54.3169 20.6065 54.3169 20.1334C54.3169 19.5659 54.3169 18.8076 54.5019 17.3169L54.4092 17.2218C53.4864 19.1866 51.6408 21.7432 49.2415 21.7432C47.3955 21.7432 46.5647 19.7547 46.5647 18.0742C46.5647 13.9075 49.7945 9.45762 54.4092 9.45762H55.332C55.7014 6.52202 55.7014 5.29128 55.7014 4.3441C55.7014 4.06019 55.7014 3.77593 55.4244 3.77593C55.1473 3.77593 54.7786 3.87068 53.8554 4.15459L53.6711 3.39727C55.517 2.7347 57.5473 2.35569 59.3926 2.26093C59.5776 2.26093 59.6696 2.26093 59.6696 2.63959C59.6696 5.10142 57.8237 17.9791 57.8237 19.2817C57.8237 19.5659 57.8237 20.039 58.1931 20.039C58.3774 20.039 59.0239 19.8491 59.762 19.5656L60.039 20.3233ZM54.0398 16.2753C54.6862 14.6655 54.8706 13.0558 55.24 10.594C55.055 10.4988 54.8706 10.4988 54.7786 10.4988C51.9175 10.4988 50.533 14.8547 50.533 17.2218C50.533 17.7899 50.6257 19.1866 51.4561 19.1866C52.6559 19.1869 53.6711 17.2221 54.0398 16.2753Z" fill="#CCCCCC"/>
<path fill-rule="evenodd" clip-rule="evenodd" d="M21.0254 22.8799H22.0405L23.3324 24.8683V22.8799H24.1632V26.6672H23.4247L21.8558 24.49V26.6672H21.0254V22.8799ZM26.5622 22.8799H29.4233V23.6376H27.6697V24.2998H28.7775V25.1522H27.6697V25.8148H29.4233V26.6672H26.5622V22.8799ZM32.4691 23.6376H31.4539V22.8799H34.5914V23.6376H33.5762V26.6672H32.4691V23.6376ZM36.4373 22.8799H37.5441L38.0062 24.8683H38.0979L38.5593 22.8799H39.4828L39.9438 24.8683H40.0365L40.4979 22.8799H41.328L40.4052 26.6672H39.4828L38.9287 24.5841L38.3749 26.6672H37.4525L36.4373 22.8799ZM45.0889 26.7623C44.0048 26.7623 43.2663 26.005 43.2663 24.7736C43.2663 23.5428 44.0044 22.7852 45.0889 22.7852C46.1968 22.7852 46.8422 23.5425 46.8422 24.7736C46.8422 26.0047 46.1964 26.7623 45.0889 26.7623ZM44.4432 24.7732C44.4432 25.8148 44.7202 26.0047 45.0889 26.0047C45.4583 26.0047 45.7347 25.8148 45.7347 24.7732C45.7347 23.7323 45.4583 23.5425 45.0889 23.5425C44.6275 23.5425 44.4432 23.8267 44.4432 24.7732ZM49.0568 22.8799H50.9028C52.1023 22.8799 52.3793 23.4474 52.3793 23.9215C52.3793 24.3949 52.1023 24.7732 51.6412 24.8683L52.3793 26.6672H51.1798L50.6261 25.0575H50.1647V26.6672H49.0568V22.8799ZM50.1647 24.3949H50.7184C50.9948 24.3949 51.2722 24.205 51.2722 24.0159C51.2722 23.7323 51.0871 23.5425 50.7184 23.5425H50.1647V24.3949ZM54.6867 22.8799H55.7942V24.3949L56.9013 22.8799H57.9165L56.9937 24.1106L58.1008 26.6672H56.9937L56.2556 25.0575L55.7942 25.7207V26.6672H54.6867V22.8799Z" fill="white"/>
</svg>
