<svg width="104" height="41" viewBox="0 0 104 41" fill="none" xmlns="http://www.w3.org/2000/svg">
<g filter="url(#filter0_d_516_4801)">
<path fill-rule="evenodd" clip-rule="evenodd" d="M5.83049 26.3019L13.5362 26.1955L13.5582 26.1494L5.25467 24.7855L5.2123 24.6211L12.1747 24.5189C12.1747 24.5189 12.1171 24.377 11.9394 24.025L4.77584 22.8544L4.75133 22.6899L11.4534 22.5909L11.3488 22.1111L4.55276 21.0699L4.5451 20.8672L11.1472 20.7698L11.0961 20.2706L4.49609 19.1576L4.50732 18.9921L11.0981 18.8946C11.0639 18.7014 11.1191 18.3106 11.1191 18.3106L4.60074 17.2924L4.62984 17.1259L11.2161 17.0473C11.215 16.9509 11.2533 16.5963 11.2533 16.5963L4.84271 15.4152L4.87181 15.2492L11.5203 15.1507C11.5203 15.1507 11.5637 14.7767 11.6398 14.5824L5.2317 13.5789L5.27866 13.4123L11.9409 13.3138C11.9409 13.3138 12.0793 12.9179 12.1559 12.7717L5.7774 11.7844L5.82437 11.6367L12.599 11.5367C12.599 11.5367 12.795 11.1182 12.8404 11.005L6.51096 9.99991L6.5763 9.85168L13.4714 9.75007C13.4714 9.75007 13.6562 9.37767 13.8256 9.11735L7.50283 8.11275L7.56766 7.98285L14.6587 7.89643C14.6587 7.89643 14.8721 7.55179 15.0585 7.37213L8.66672 6.38953L8.78567 6.24078L16.0355 6.13393C16.0355 6.13393 16.3183 5.81757 16.5205 5.65363L10.2359 4.66946L10.337 4.52071L17.7242 4.40548L18.2071 3.96603L12.4826 2.69692L12.4688 2.69849C14.9257 1.10098 17.9748 0.135667 21.6488 0.085385C28.4785 -0.00941822 34.2454 3.45954 34.4378 11.6048L25.5585 11.7273C25.2645 8.83975 23.5865 7.85558 21.196 7.88857C16.0309 7.95981 13.8001 13.6417 13.8706 19.0298C13.9191 22.7083 15.4878 25.1401 19.2868 25.0867C21.8055 25.0521 23.9276 24.1036 24.8337 21.5502L20.565 21.6083L21.8433 14.8883L34.3077 14.716L31.0334 31.977L25.0996 32.0587L25.3161 29.0339L25.2298 28.9469C23.3022 31.6894 20.2858 32.87 17.0417 32.915C10.7005 33.003 7.4186 29.7844 5.83968 26.3281L5.83049 26.3019ZM51.5706 14.9553C50.6609 14.4043 49.5338 14.0246 48.0825 14.0419C46.2754 14.0628 44.3126 14.8165 44.3391 17.1479C44.3759 20.4345 50.8922 20.3858 50.9499 25.5262C50.983 28.4755 49.0218 31.8424 44.4223 31.8963C42.2048 31.923 40.6111 31.4359 39.071 30.8357L39.9184 28.2414C41.0486 28.9584 42.6152 29.4456 43.9568 29.4304C46.8589 29.3958 48.0702 27.5275 48.0513 25.898C48.0069 21.9095 41.4988 22.6889 41.4376 17.2395C41.3972 13.6716 44.5505 11.6116 47.6991 11.5744C49.2867 11.5555 50.8508 11.8462 52.3088 12.447L51.5706 14.9553ZM62.5138 31.0923C61.1758 31.4453 59.7827 31.7146 58.3871 31.7308C54.9924 31.7706 51.9371 30.403 51.88 25.3465C51.8355 21.3857 54.4946 16.7749 59.4228 16.7163C62.79 16.6765 64.7022 18.7328 64.741 22.1321C64.7512 23.0864 64.6512 23.903 64.5235 24.7468L54.6947 24.8636C54.6437 25.1608 54.6196 25.4622 54.6228 25.764C54.6565 28.7694 56.4733 29.6184 58.9649 29.5891C60.2513 29.5739 61.6439 29.2209 62.8972 28.6714L62.5138 31.0923ZM62.0921 22.8093C62.1432 22.3877 62.1661 22.0504 62.1621 21.7126C62.1442 20.0276 61.1171 18.8318 59.1732 18.8543C57.0654 18.8789 55.4712 20.7808 54.9479 22.8942L62.0921 22.8093ZM66.4042 19.1612C66.5078 18.5699 66.6635 17.8099 66.763 16.9661L69.173 16.9373L68.76 19.2178H68.8146C69.6202 17.8591 71.1118 16.5775 73.5483 16.5487C73.7944 16.5455 74.2334 16.5969 74.7286 16.788L74.1793 19.1256C73.6846 18.9355 73.2732 18.8554 73.0818 18.8585C69.9061 18.8952 68.3848 22.4532 68.0489 24.2272L66.6768 31.295L64.1034 31.3259L66.4042 19.1612ZM75.5234 16.8614L78.0967 16.8315L75.3008 31.1923L72.7275 31.2232L75.5234 16.8614ZM78.9099 13.6192L76.0073 13.6532L76.5755 10.6682L79.4781 10.6342L78.9099 13.6192ZM88.3262 30.7854C86.9883 31.1384 85.5952 31.4076 84.1995 31.4239C80.8048 31.4647 77.7496 30.0961 77.6929 25.0396C77.648 21.0788 80.3071 16.468 85.2353 16.4093C88.6024 16.3701 90.5147 18.4269 90.5535 21.8252C90.5637 22.7805 90.4636 23.596 90.336 24.4409L80.5072 24.5567C80.4562 24.8538 80.4321 25.1553 80.4352 25.457C80.4689 28.4624 82.2857 29.3115 84.7774 29.2821C86.0638 29.268 87.4564 28.9139 88.7096 28.3655L88.3262 30.7854ZM87.9046 22.5024C87.9556 22.0808 87.9786 21.7435 87.9745 21.4056C87.9556 19.7206 86.9296 18.5249 84.9857 18.5474C82.8779 18.5731 81.2837 20.4738 80.7604 22.5873L87.9046 22.5024Z" fill="#CCCCCC"/>
<path fill-rule="evenodd" clip-rule="evenodd" d="M99.257 19.1089C98.5413 18.7517 97.4147 18.3997 96.4565 18.4113C95.334 18.4244 93.8592 18.7507 93.875 20.1842C93.9031 22.6271 98.6679 22.6832 98.7128 26.6722C98.7516 30.1281 95.6699 31.2877 93.4804 31.3134C91.2629 31.3401 90.4375 31.0405 89.3936 30.6875L89.8601 28.407C90.878 28.816 91.951 29.1968 93.0726 29.1832C94.4692 29.167 95.9961 28.5583 95.9767 26.9294C95.9496 24.4855 91.1817 24.1765 91.1409 20.553C91.1072 17.5188 94.0501 16.3041 96.3503 16.2769C97.5816 16.2622 98.845 16.5561 100 17.0201L99.257 19.1089Z" fill="#CCCCCC"/>
</g>
<defs>
<filter id="filter0_d_516_4801" x="0.496094" y="0.0834961" width="103.504" height="40.8335" filterUnits="userSpaceOnUse" color-interpolation-filters="sRGB">
<feFlood flood-opacity="0" result="BackgroundImageFix"/>
<feColorMatrix in="SourceAlpha" type="matrix" values="0 0 0 0 0 0 0 0 0 0 0 0 0 0 0 0 0 0 127 0" result="hardAlpha"/>
<feOffset dy="4"/>
<feGaussianBlur stdDeviation="2"/>
<feComposite in2="hardAlpha" operator="out"/>
<feColorMatrix type="matrix" values="0 0 0 0 0 0 0 0 0 0 0 0 0 0 0 0 0 0 0.25 0"/>
<feBlend mode="normal" in2="BackgroundImageFix" result="effect1_dropShadow_516_4801"/>
<feBlend mode="normal" in="SourceGraphic" in2="effect1_dropShadow_516_4801" result="shape"/>
</filter>
</defs>
</svg>
