<svg width="67" height="33" viewBox="0 0 67 33" fill="none" xmlns="http://www.w3.org/2000/svg">
<path fill-rule="evenodd" clip-rule="evenodd" d="M1.50477 4.62942H5.71068C5.33393 4.36587 4.62467 4.03027 3.45718 4.03027C2.61212 4.03027 1.97929 4.27232 1.50477 4.62942ZM6.41683 4.62942H10.816C10.2976 4.27232 9.57204 4.03027 8.55859 4.03027C7.48849 4.03027 6.79591 4.36587 6.41683 4.62942ZM0.911133 5.22856H11.4445C11.2677 4.99556 11.0554 4.79326 10.816 4.62942H6.41683C6.17201 4.79941 6.05793 4.93914 6.05793 4.93914C6.05793 4.93914 5.95318 4.79941 5.71068 4.62942H1.50477C1.28042 4.79949 1.08057 5.0012 0.911133 5.22856Z" fill="#CCCCCC"/>
<path fill-rule="evenodd" clip-rule="evenodd" d="M0.55957 5.80745H11.7871C11.6952 5.60177 11.5805 5.40767 11.4453 5.229H0.911485C0.771806 5.41532 0.655794 5.61158 0.55957 5.80745Z" fill="#CCCCCC"/>
<path fill-rule="evenodd" clip-rule="evenodd" d="M0.318499 6.40579H11.9907C11.9405 6.20003 11.8719 5.99947 11.7858 5.80664H0.55867C0.458566 6.01047 0.380191 6.2139 0.318499 6.40579ZM0.166016 7.00533H2.85252C3.02556 6.79911 3.31074 6.6128 3.77673 6.6128C4.2431 6.6128 4.50849 6.79951 4.65904 7.00533H7.63654C7.8123 6.79911 8.10252 6.6128 8.57743 6.6128C9.02596 6.6128 9.29329 6.79951 9.45237 7.00533H12.0892C12.0713 6.8033 12.0382 6.60299 11.9903 6.40618H0.318499C0.255733 6.6025 0.204809 6.80259 0.166016 7.00533Z" fill="#CCCCCC"/>
<path fill-rule="evenodd" clip-rule="evenodd" d="M0.0958907 7.5843H2.59654V7.5429C2.59654 7.5429 2.63922 7.25985 2.85262 7.00586H0.166118C0.104815 7.32872 0.0958907 7.5429 0.0958907 7.5429V7.5843ZM4.85742 7.5843H7.37825V7.5429C7.37825 7.5429 7.42131 7.25985 7.63743 7.00586H4.65992C4.77247 7.16296 4.84091 7.3487 4.8578 7.5429V7.5843H4.85742ZM9.6783 7.5843H12.099V7.5429C12.099 7.5429 12.1184 7.32832 12.0897 7.00586H9.45288C9.64765 7.25985 9.6783 7.5429 9.6783 7.5429V7.5843ZM0.0947266 8.18345H2.59654V7.5843H0.0958907L0.0947266 8.18345ZM4.85742 8.18345H7.37825V7.5843H4.85742V8.18345ZM9.6783 8.18345H12.099V7.5843H9.6783V8.18345Z" fill="#CCCCCC"/>
<path fill-rule="evenodd" clip-rule="evenodd" d="M0.0943253 8.78323H2.59769V8.18408H0.0958776L0.0943253 8.78323ZM4.85817 8.78323H7.379V8.18408H4.85817V8.78323ZM9.67905 8.78323H12.0998V8.18408H9.67905V8.78323ZM0.0927734 9.36167H2.5973V8.78323H0.0939375L0.0927734 9.36167ZM4.85817 9.36167H7.379V8.78323H4.85817V9.36167ZM9.67905 9.36167H12.0998V8.78323H9.67905V9.36167Z" fill="#CCCCCC"/>
<path fill-rule="evenodd" clip-rule="evenodd" d="M0.0919844 9.96048H2.59768V9.36133H0.0927603L0.0919844 9.96048ZM4.85816 9.96048H7.37898V9.36133H4.85816V9.96048ZM9.67904 9.96048H12.0998V9.36133H9.67904V9.96048ZM0.0908203 10.5389H2.59768V9.96048H0.0919844L0.0908203 10.5389ZM4.85816 10.5389H7.37898V9.96048H4.85816V10.5389ZM9.67904 10.5389H12.0998V9.96048H9.67904V10.5389Z" fill="#CCCCCC"/>
<path fill-rule="evenodd" clip-rule="evenodd" d="M0.0890547 11.1386H2.59708V10.5391H0.0902188L0.0890547 11.1386ZM4.85794 11.1386H7.37877V10.5391H4.85794V11.1386ZM9.67883 11.1386H12.0995V10.5391H9.67883V11.1386ZM0.0878906 11.7378H2.59747V11.1386H0.0894425L0.0878906 11.7378ZM4.85794 11.7378H7.37877V11.1386H4.85794V11.7378ZM9.67883 11.7378H12.0995V11.1386H9.67883V11.7378Z" fill="#CCCCCC"/>
<path fill-rule="evenodd" clip-rule="evenodd" d="M0.0869141 12.3157H2.59766V11.7373H0.0880782L0.0869141 12.3157ZM4.85814 12.3157H7.37897V11.7373H4.85814V12.3157ZM9.67902 12.3157H12.0997V11.7373H9.67902V12.3157Z" fill="#CCCCCC"/>
<path fill-rule="evenodd" clip-rule="evenodd" d="M0.0849609 12.9155H2.59686V12.3159H0.0861247L0.0849609 12.9155ZM4.85735 12.9155H7.37817V12.3159H4.85735V12.9155ZM9.67823 12.9155H12.099V12.3159H9.67823V12.9155Z" fill="#CCCCCC"/>
<path fill-rule="evenodd" clip-rule="evenodd" d="M0.0839844 13.5142H2.59744V12.915H0.0855366L0.0839844 13.5142ZM4.85792 13.5142H7.37874V12.915H4.85792V13.5142ZM9.6788 13.5142H12.0995V12.915H9.6788V13.5142Z" fill="#CCCCCC"/>
<path fill-rule="evenodd" clip-rule="evenodd" d="M0.0831819 14.0926H2.59741V13.5142H0.0839578L0.0831819 14.0926ZM4.85789 14.0926H7.37872V13.5142H4.85789V14.0926ZM9.67878 14.0926H12.0995V13.5142H9.67878V14.0926ZM0.08163 14.6917H2.59703V14.0926H0.0827941L0.08163 14.6917ZM4.85789 14.6917H7.37872V14.0926H4.85789V14.6917ZM9.67878 14.6917H12.0995V14.0926H9.67878V14.6917ZM0.0800781 15.2913H2.59703V14.6921H0.08163L0.0800781 15.2913ZM4.85789 15.2913H7.37872V14.6921H4.85789V15.2913ZM9.67878 15.2913H12.0995V14.6921H9.67878V15.2913Z" fill="#CCCCCC"/>
<path fill-rule="evenodd" clip-rule="evenodd" d="M0.0783125 15.8699H2.59642V15.2915H0.0794766L0.0783125 15.8699ZM4.85729 15.8699H7.37812V15.2915H4.85729V15.8699ZM9.67817 15.8699H12.0989V15.2915H9.67817V15.8699ZM0.0771484 16.4691H2.59642V15.8699H0.0783125L0.0771484 16.4691ZM4.85729 16.4691H7.37812V15.8699H4.85729V16.4691ZM9.67817 16.4691H12.0989V15.8699H9.67817V16.4691Z" fill="#CCCCCC"/>
<path fill-rule="evenodd" clip-rule="evenodd" d="M0.0761719 17.0684H2.597V16.4692H0.0777241L0.0761719 17.0684ZM4.85748 17.0684H7.37831V16.4692H4.85748V17.0684ZM9.67837 17.0684H12.0991V16.4692H9.67837V17.0684Z" fill="#CCCCCC"/>
<path fill-rule="evenodd" clip-rule="evenodd" d="M0.0753828 17.6463H2.59738V17.0679H0.0765466L0.0753828 17.6463ZM4.85786 17.6463H7.37869V17.0679H4.85786V17.6463ZM9.67875 17.6463H12.0995V17.0679H9.67875V17.6463ZM0.0742188 18.2459H2.59738V17.6463H0.0753828L0.0742188 18.2459ZM4.85786 18.2459H7.37869V17.6463H4.85786V18.2459ZM9.67875 18.2459H12.0995V17.6463H9.67875V18.2459Z" fill="#CCCCCC"/>
<path fill-rule="evenodd" clip-rule="evenodd" d="M0.0726407 18.8245H2.59696V18.2461H0.0738044L0.0726407 18.8245ZM4.85783 18.8245H7.37866V18.2461H4.85783V18.8245ZM9.67872 18.8245H12.0994V18.2461H9.67872V18.8245ZM0.0714766 19.4241H2.59735V18.8245H0.0730285L0.0714766 19.4241ZM4.85783 19.4241H7.37866V18.8245H4.85783V19.4241ZM9.67872 19.4241H12.0994V18.8245H9.67872V19.4241ZM0.0703125 20.0228H2.59735V19.4241H0.0714766L0.0703125 20.0228ZM4.85783 20.0228H7.37866V19.4241H4.85783V20.0228ZM9.67872 20.0228H12.0994V19.4241H9.67872V20.0228Z" fill="#CCCCCC"/>
<path fill-rule="evenodd" clip-rule="evenodd" d="M0.0685469 20.6022H2.59714V20.0229H0.0700988L0.0685469 20.6022ZM4.85762 20.6022H7.37845V20.0229H4.85762V20.6022ZM9.6785 20.6022H12.0992V20.0229H9.6785V20.6022ZM0.0673828 21.2009H2.59675V20.6022H0.0681588L0.0673828 21.2009ZM4.85762 21.2009H7.37845V20.6022H4.85762V21.2009ZM9.6785 21.2009H12.0992V20.6022H9.6785V21.2009Z" fill="#CCCCCC"/>
<path fill-rule="evenodd" clip-rule="evenodd" d="M0.066005 21.8002H2.59653V21.2007H0.0671691L0.066005 21.8002ZM4.8574 21.8002H7.37822V21.2007H4.8574V21.8002ZM9.67828 21.8002H12.099V21.2007H9.67828V21.8002ZM0.0644531 22.3791H2.59653V21.8006H0.066005L0.0644531 22.3791ZM4.8574 22.3791H7.37822V21.8006H4.8574V22.3791ZM9.67828 22.3791H12.099V21.8006H9.67828V22.3791Z" fill="#CCCCCC"/>
<path fill-rule="evenodd" clip-rule="evenodd" d="M0.0644531 22.9785H2.5977V22.3789H0.0656172L0.0644531 22.9785ZM4.85817 22.9785H7.379V22.3789H4.85817V22.9785ZM9.67906 22.9785H12.0998V22.3789H9.67906V22.9785Z" fill="#CCCCCC"/>
<path fill-rule="evenodd" clip-rule="evenodd" d="M0.0626875 23.5768H2.59709V22.978H0.0638513L0.0626875 23.5768ZM4.85796 23.5768H7.37879V22.978H4.85796V23.5768ZM9.67884 23.5768H12.0996V22.978H9.67884V23.5768ZM0.0615234 24.1552H2.59709V23.5768H0.0626875L0.0615234 24.1552ZM4.85796 24.1552H7.37879V23.5768H4.85796V24.1552ZM9.67884 24.1552H12.0996V23.5768H9.67884V24.1552Z" fill="#CCCCCC"/>
<path fill-rule="evenodd" clip-rule="evenodd" d="M0.059945 24.7548H2.59668V24.1553H0.0611091L0.059945 24.7548ZM4.85755 24.7548H7.37837V24.1553H4.85755V24.7548ZM9.67843 24.7548H12.0992V24.1553H9.67843V24.7548ZM0.0591691 25.3544H2.59707V24.7548H0.0603332L0.0591691 25.3544ZM4.85755 25.3544H7.37837V24.7548H4.85755V25.3544ZM9.67843 25.3544H12.0992V24.7548H9.67843V25.3544ZM0.0576172 25.9328H2.59707V25.3544H0.0591691L0.0576172 25.9328ZM4.85755 25.9328H7.37837V25.3544H4.85755V25.9328ZM9.67843 25.9328H12.0992V25.3544H9.67843V25.9328Z" fill="#CCCCCC"/>
<path fill-rule="evenodd" clip-rule="evenodd" d="M0.0566406 26.5314H2.59725V25.9326H0.0578047L0.0566406 26.5314ZM4.85773 26.5314H7.37856V25.9326H4.85773V26.5314ZM9.67861 26.5314H12.0993V25.9326H9.67861V26.5314Z" fill="#CCCCCC"/>
<path fill-rule="evenodd" clip-rule="evenodd" d="M30.7246 3.78225H31.0548L30.7246 3.18311V3.78225ZM30.7246 4.4021H31.397L31.0548 3.78225H30.7246V4.4021Z" fill="#CCCCCC"/>
<path fill-rule="evenodd" clip-rule="evenodd" d="M30.7246 5.02219H31.7388L31.397 4.40234H30.7246V5.02219ZM35.6258 5.02219H37.9864V4.42305H35.6258V5.02219Z" fill="#CCCCCC"/>
<path fill-rule="evenodd" clip-rule="evenodd" d="M30.7246 5.64222H32.0811L31.7388 5.02197H30.7246V5.64222ZM35.6258 5.64222H37.9864V5.02197H35.6258V5.64222Z" fill="#CCCCCC"/>
<path fill-rule="evenodd" clip-rule="evenodd" d="M30.7246 6.24125H32.4112L32.0811 5.64209H30.7246V6.24125ZM35.6258 6.24125H37.9864V5.64209H35.6258V6.24125Z" fill="#CCCCCC"/>
<path fill-rule="evenodd" clip-rule="evenodd" d="M30.7246 6.86105H32.7535L32.4112 6.24121H30.7246V6.86105ZM35.6258 6.86105H37.9864V6.24121H35.6258V6.86105ZM30.7246 7.4809H33.0953L32.7535 6.86105H30.7246V7.4809ZM35.6258 7.4809H37.9864V6.86105H35.6258V7.4809Z" fill="#CCCCCC"/>
<path fill-rule="evenodd" clip-rule="evenodd" d="M30.724 8.1004H33.4369L33.0947 7.48096H30.724V8.1004ZM35.6252 8.1004H37.9858V7.48096H35.6252V8.1004ZM30.724 8.69994H33.7671L33.4365 8.1004H30.7236V8.69994H30.724ZM35.6252 8.69994H37.9858V8.1004H35.6252V8.69994Z" fill="#CCCCCC"/>
<path fill-rule="evenodd" clip-rule="evenodd" d="M30.7246 9.32004H34.1095L33.7677 8.7002H30.7246V9.32004ZM35.6258 9.32004H37.9864V8.7002H35.6258V9.32004ZM30.7246 9.93989H34.4521L34.1095 9.32004H30.7246V9.93989ZM35.6258 9.93989H37.9864V9.32004H35.6258V9.93989Z" fill="#CCCCCC"/>
<path fill-rule="evenodd" clip-rule="evenodd" d="M30.7246 10.5597H34.7939L34.4521 9.93945H30.7246V10.5597ZM35.6258 10.5597H37.9864V9.93945H35.6258V10.5597Z" fill="#CCCCCC"/>
<path fill-rule="evenodd" clip-rule="evenodd" d="M30.7246 11.1587H35.1241L34.7936 10.5596H30.7246V11.1587ZM35.6258 11.1587H37.9864V10.5596H35.6258V11.1587ZM30.7246 11.7786H35.466L35.1241 11.1587H30.7246V11.7786ZM35.6258 11.7786H37.9864V11.1587H35.6258V11.7786Z" fill="#CCCCCC"/>
<path fill-rule="evenodd" clip-rule="evenodd" d="M30.7246 12.3982H37.9864V11.7783H35.6258V12.0681L35.466 11.7783H30.7246V12.3982ZM30.7246 13.018H33.0448V12.4603L33.3948 13.018H37.9864V12.3982H30.7246V13.018Z" fill="#CCCCCC"/>
<path fill-rule="evenodd" clip-rule="evenodd" d="M30.7246 13.6177H33.0448V13.0186H30.7246V13.6177ZM33.77 13.6177H37.9864V13.0186H33.3948L33.77 13.6177Z" fill="#CCCCCC"/>
<path fill-rule="evenodd" clip-rule="evenodd" d="M30.7246 14.2375H33.0448V13.6177H30.7246V14.2375ZM34.1588 14.2375H37.9864V13.6177H33.77L34.1588 14.2375Z" fill="#CCCCCC"/>
<path fill-rule="evenodd" clip-rule="evenodd" d="M30.7246 14.8571H33.0448V14.2373H30.7246V14.8571ZM34.5476 14.8571H37.9864V14.2373H34.1588L34.5476 14.8571Z" fill="#CCCCCC"/>
<path fill-rule="evenodd" clip-rule="evenodd" d="M30.7246 15.4565H33.0448V14.8569H30.7246V15.4565ZM34.9228 15.4565H37.9864V14.8569H34.5476L34.9228 15.4565Z" fill="#CCCCCC"/>
<path fill-rule="evenodd" clip-rule="evenodd" d="M30.7246 16.0764H33.0448V15.4565H30.7246V16.0764ZM35.3111 16.0764H37.9864V15.4565H34.9228L35.3111 16.0764Z" fill="#CCCCCC"/>
<path fill-rule="evenodd" clip-rule="evenodd" d="M30.7246 16.6965H33.0448V16.0767H30.7246V16.6965ZM35.6999 16.6965H37.9864V16.0767H35.3111L35.6999 16.6965ZM30.7246 17.3163H33.0448V16.6965H30.7246V17.3163ZM35.7259 17.3163H37.9864V16.6965H35.6999L35.7255 16.7379V17.3163H35.7259ZM30.7246 17.9159H33.0448V17.3163H30.7246V17.9159ZM35.7259 17.9159H37.9864V17.3163H35.7259V17.9159Z" fill="#CCCCCC"/>
<path fill-rule="evenodd" clip-rule="evenodd" d="M30.7246 18.5349H33.0448V17.915H30.7246V18.5349ZM35.7259 18.5349H37.9864V17.915H35.7259V18.5349ZM30.7246 19.1547H33.0448V18.5349H30.7246V19.1547ZM35.7259 19.1547H37.9864V18.5349H35.7259V19.1547Z" fill="#CCCCCC"/>
<path fill-rule="evenodd" clip-rule="evenodd" d="M30.7246 19.7754H33.0448V19.1548H30.7246V19.7754ZM35.7259 19.7754H37.9864V19.1548H35.7259V19.7754Z" fill="#CCCCCC"/>
<path fill-rule="evenodd" clip-rule="evenodd" d="M30.7246 20.3741H33.0448V19.7754H30.7246V20.3741ZM35.7259 20.3741H37.9864V19.7754H35.7259V20.3741ZM30.7246 20.9948H33.0448V20.3741H30.7246V20.9948ZM35.7259 20.9948H37.9864V20.3741H35.7259V20.9948Z" fill="#CCCCCC"/>
<path fill-rule="evenodd" clip-rule="evenodd" d="M30.7246 21.6145H33.0448V20.9946H30.7246V21.6145ZM35.7259 21.6145H37.9864V20.9946H35.7259V21.6145Z" fill="#CCCCCC"/>
<path fill-rule="evenodd" clip-rule="evenodd" d="M30.7246 22.2336H33.0448V21.6138H30.7246V22.2336ZM35.7259 22.2336H37.9864V21.6138H35.7259V22.2336ZM30.7246 22.8332H33.0448V22.2336H30.7246V22.8332ZM35.7259 22.8332H37.9864V22.2336H35.7259V22.8332Z" fill="#CCCCCC"/>
<path fill-rule="evenodd" clip-rule="evenodd" d="M30.7246 23.4534H33.0448V22.8335H30.7246V23.4534ZM35.7259 23.4534H37.9864V22.8335H35.7259V23.4534Z" fill="#CCCCCC"/>
<path fill-rule="evenodd" clip-rule="evenodd" d="M30.7246 24.0725H33.0448V23.4526H30.7246V24.0725ZM35.7259 24.0725H37.9864V23.4526H35.7259V24.0725Z" fill="#CCCCCC"/>
<path fill-rule="evenodd" clip-rule="evenodd" d="M30.7246 24.6926H33.0448V24.0728H30.7246V24.6926ZM35.7259 24.6926H37.9864V24.0728H35.7259V24.6926Z" fill="#CCCCCC"/>
<path fill-rule="evenodd" clip-rule="evenodd" d="M30.7246 25.2924H33.0448V24.6929H30.7246V25.2924ZM35.7259 25.2924H37.9864V24.6929H35.7259V25.2924ZM30.7246 25.9123H33.0448V25.2924H30.7246V25.9123ZM35.7259 25.9123H37.9864V25.2924H35.7259V25.9123Z" fill="#CCCCCC"/>
<path fill-rule="evenodd" clip-rule="evenodd" d="M30.7246 26.5315H33.0448V25.9116H30.7246V26.5315ZM35.7259 26.5315H37.9864V25.9116H35.7259V26.5315Z" fill="#CCCCCC"/>
<path fill-rule="evenodd" clip-rule="evenodd" d="M51.957 0.951752H53.8097V0.0834961C53.8097 0.0834961 53.064 0.345446 51.957 0.951752Z" fill="#CCCCCC"/>
<path fill-rule="evenodd" clip-rule="evenodd" d="M50.5244 1.81913H53.8096V0.95166H51.9569C51.4675 1.21953 50.9895 1.50896 50.5244 1.81913Z" fill="#CCCCCC"/>
<path fill-rule="evenodd" clip-rule="evenodd" d="M49.3514 2.6665H53.8103V1.81934H50.5251C50.1239 2.08699 49.7324 2.36956 49.3514 2.6665ZM48.3162 3.53435H53.8103V2.6665H49.3514C48.9966 2.94336 48.6513 3.23282 48.3162 3.53435ZM47.416 4.40221H52.9194C53.4657 4.13907 53.8106 4.03039 53.8106 4.03039V3.53435H48.3166C48.0067 3.81292 47.7064 4.10238 47.416 4.40221Z" fill="#CCCCCC"/>
<path fill-rule="evenodd" clip-rule="evenodd" d="M46.6281 5.26962H51.4168C51.8965 4.94363 52.3985 4.65346 52.9188 4.40137H47.4154C47.1438 4.6819 46.8813 4.97147 46.6281 5.26962ZM45.9395 6.13748H50.2815C50.6437 5.82652 51.0227 5.5369 51.4168 5.27002H46.6281C46.3895 5.55142 46.1598 5.84073 45.9395 6.13748Z" fill="#CCCCCC"/>
<path fill-rule="evenodd" clip-rule="evenodd" d="M45.3342 7.00556H49.3678C49.6576 6.70039 49.9624 6.41072 50.2812 6.1377H45.9391C45.7285 6.42027 45.5267 6.70971 45.3342 7.00556ZM44.8174 7.85272H48.6345C48.8663 7.55891 49.1111 7.27622 49.3682 7.00556H45.3346C45.1561 7.27826 44.9842 7.56051 44.8174 7.85272Z" fill="#CCCCCC"/>
<path fill-rule="evenodd" clip-rule="evenodd" d="M44.3565 8.7204H48.0083C48.2048 8.42192 48.4139 8.13236 48.6349 7.85254H44.8178C44.6558 8.13716 44.502 8.42657 44.3565 8.7204ZM43.958 9.58866H47.4888C47.6556 9.28451 47.8291 8.99549 48.0087 8.7208H44.3569C44.2172 9.00186 44.0837 9.29088 43.958 9.58866Z" fill="#CCCCCC"/>
<path fill-rule="evenodd" clip-rule="evenodd" d="M43.6172 10.4562H47.0584C47.1911 10.1615 47.3346 9.87201 47.4886 9.58838H43.9579C43.8366 9.87442 43.723 10.1638 43.6172 10.4562Z" fill="#CCCCCC"/>
<path fill-rule="evenodd" clip-rule="evenodd" d="M43.3303 11.3234H46.7062C46.8153 11.0233 46.9328 10.7334 47.0578 10.4556H43.6166C43.5153 10.7382 43.4199 11.0276 43.3303 11.3234ZM43.0986 12.1706H46.4269C46.5134 11.8788 46.6065 11.5965 46.7066 11.3234H43.3307C43.2461 11.6037 43.1687 11.8861 43.0986 12.1706Z" fill="#CCCCCC"/>
<path fill-rule="evenodd" clip-rule="evenodd" d="M42.9056 13.0388H46.2036C46.2711 12.7406 46.3453 12.4512 46.4271 12.1709H43.0989C43.0273 12.4585 42.9629 12.7479 42.9056 13.0388ZM42.7578 13.9066H46.0337C46.083 13.6088 46.1396 13.3198 46.2036 13.0388H42.9056C42.8502 13.3226 42.8009 13.612 42.7578 13.9066Z" fill="#CCCCCC"/>
<path fill-rule="evenodd" clip-rule="evenodd" d="M42.6507 14.7741H45.9138C45.9464 14.4771 45.9867 14.1877 46.0329 13.9062H42.757C42.715 14.1947 42.6796 14.484 42.6507 14.7741ZM42.5805 15.642H45.8412C45.8587 15.3458 45.8827 15.0564 45.9142 14.7741H42.6511C42.6214 15.0628 42.5978 15.3522 42.5805 15.642ZM42.5518 16.4891H45.811C45.8148 16.2009 45.8245 15.9183 45.8412 15.6424H42.5805C42.5653 15.9244 42.5557 16.2067 42.5518 16.4891Z" fill="#CCCCCC"/>
<path fill-rule="evenodd" clip-rule="evenodd" d="M42.5544 17.3571H45.8206C45.8126 17.1506 45.8086 16.9439 45.8086 16.7373C45.8086 16.6541 45.8101 16.5721 45.8117 16.4893H42.5525C42.551 16.6059 42.5479 16.7225 42.5479 16.8408C42.5479 17.0151 42.551 17.1871 42.5544 17.3571ZM50.5495 17.3571H53.8103V16.8408H50.5495V17.3571Z" fill="#CCCCCC"/>
<path fill-rule="evenodd" clip-rule="evenodd" d="M42.5978 18.2256H45.8798C45.8522 17.9367 45.8325 17.647 45.8209 17.3569H42.5547C42.5628 17.6515 42.5772 17.941 42.5978 18.2256ZM50.5494 18.2256H53.8102V17.3569H50.5494V18.2256Z" fill="#CCCCCC"/>
<path fill-rule="evenodd" clip-rule="evenodd" d="M42.6764 19.0939H45.9895C45.9442 18.8059 45.9076 18.5165 45.8797 18.2261H42.5977C42.6178 18.5199 42.6438 18.8101 42.6764 19.0939ZM50.5493 19.0939H53.81V18.2261H50.5493V19.0939Z" fill="#CCCCCC"/>
<path fill-rule="evenodd" clip-rule="evenodd" d="M42.8017 19.9611H46.1536C46.0902 19.6737 46.0356 19.3842 45.9899 19.0933H42.6768C42.7117 19.3883 42.754 19.6773 42.8017 19.9611ZM50.5496 19.9611H53.8104V19.0933H50.5496V19.9611Z" fill="#CCCCCC"/>
<path fill-rule="evenodd" clip-rule="evenodd" d="M42.9709 20.8288H46.3764C46.2928 20.5421 46.2186 20.2527 46.1537 19.9609H42.8018C42.8518 20.2563 42.9081 20.5458 42.9709 20.8288ZM50.5497 20.8288H53.8104V19.9609H50.5497V20.8288Z" fill="#CCCCCC"/>
<path fill-rule="evenodd" clip-rule="evenodd" d="M43.1806 21.6759H46.6536C46.5516 21.397 46.4591 21.1145 46.3762 20.8291H42.9707C43.0343 21.1177 43.1038 21.4 43.1806 21.6759ZM50.5495 21.6759H53.8102V20.8291H50.5495V21.6759ZM43.4464 22.5445H47.0059C46.8786 22.2593 46.761 21.9696 46.6536 21.6759H43.1806C43.2625 21.972 43.3509 22.2623 43.4464 22.5445ZM50.5495 22.5445H53.8102V21.6759H50.5495V22.5445Z" fill="#CCCCCC"/>
<path fill-rule="evenodd" clip-rule="evenodd" d="M43.7677 23.4118H47.4332C47.2799 23.1281 47.137 22.8386 47.0048 22.5439H43.4453C43.5466 22.8405 43.6541 23.1296 43.7677 23.4118ZM50.5488 23.4118H53.8095V22.5439H50.5488V23.4118Z" fill="#CCCCCC"/>
<path fill-rule="evenodd" clip-rule="evenodd" d="M44.1511 24.28H47.9477C47.7655 23.9977 47.5942 23.7081 47.434 23.4121H43.7686C43.8888 23.7091 44.0169 23.9985 44.1511 24.28ZM50.5492 24.28H53.81V23.4121H50.5492V24.28Z" fill="#CCCCCC"/>
<path fill-rule="evenodd" clip-rule="evenodd" d="M44.5991 25.1477H48.5617C48.3452 24.8674 48.1404 24.5779 47.9479 24.2798H44.1514C44.2938 24.5784 44.4439 24.867 44.5991 25.1477ZM50.5494 25.1477H53.8102V24.2798H50.5494V25.1477Z" fill="#CCCCCC"/>
<path fill-rule="evenodd" clip-rule="evenodd" d="M45.105 25.9942H49.2775C49.0264 25.7232 48.7874 25.4407 48.5613 25.1475H44.5986C44.7582 25.4354 44.9271 25.7178 45.105 25.9942ZM50.549 25.9942H53.8097V25.1475H50.549V25.9942Z" fill="#CCCCCC"/>
<path fill-rule="evenodd" clip-rule="evenodd" d="M45.7034 26.8623H50.182C49.8641 26.5915 49.5622 26.3014 49.278 25.9937H45.1055C45.2954 26.2899 45.4948 26.5796 45.7034 26.8623ZM50.5495 26.8623H53.8102V25.9937H50.5495V26.8623Z" fill="#CCCCCC"/>
<path fill-rule="evenodd" clip-rule="evenodd" d="M46.3903 27.7307H53.81V26.8628H50.5492V27.1522C50.5492 27.1522 50.4115 27.0567 50.1818 26.8628H45.7031C45.9225 27.16 46.1517 27.4494 46.3903 27.7307Z" fill="#CCCCCC"/>
<path fill-rule="evenodd" clip-rule="evenodd" d="M47.181 28.5983H53.8103V27.7305H46.3906C46.649 28.0354 46.9136 28.3236 47.181 28.5983Z" fill="#CCCCCC"/>
<path fill-rule="evenodd" clip-rule="evenodd" d="M48.0925 29.466H53.81V28.5981H47.1807C47.4745 28.8984 47.7786 29.1879 48.0925 29.466Z" fill="#CCCCCC"/>
<path fill-rule="evenodd" clip-rule="evenodd" d="M49.1489 30.3337H53.8103V29.4658H48.0928C48.434 29.7687 48.7863 30.0582 49.1489 30.3337ZM50.3567 31.1812H53.8099V30.3337H49.1485C49.5406 30.6319 49.9436 30.9146 50.3567 31.1812ZM51.8467 32.0491H53.8103V31.1812H50.3571C50.8926 31.5256 51.397 31.8142 51.8467 32.0491Z" fill="#CCCCCC"/>
<path fill-rule="evenodd" clip-rule="evenodd" d="M53.8103 32.9172V32.0493H51.8467C53.0153 32.66 53.8103 32.9172 53.8103 32.9172Z" fill="#CCCCCC"/>
<path fill-rule="evenodd" clip-rule="evenodd" d="M59.3516 17.6881H61.7319V17.5225H59.3516V17.6881ZM64.5131 17.6881H66.9936V17.5225H64.5131V17.6881ZM59.3516 18.2868H61.7319V17.6881H59.3516V18.2868ZM64.5131 18.2868H66.9936V17.6881H64.5131V18.2868Z" fill="#CCCCCC"/>
<path fill-rule="evenodd" clip-rule="evenodd" d="M59.3516 18.8867H61.7319V18.2871H59.3516V18.8867ZM64.5131 18.8867H66.9936V18.2871H64.5131V18.8867Z" fill="#CCCCCC"/>
<path fill-rule="evenodd" clip-rule="evenodd" d="M59.3516 19.4855H61.7319V18.8867H59.3516V19.4855ZM64.5131 19.4855H66.9936V18.8867H64.5131V19.4855ZM59.3516 20.085H61.7319V19.4855H59.3516V20.085ZM64.5131 20.085H66.9936V19.4855H64.5131V20.085Z" fill="#CCCCCC"/>
<path fill-rule="evenodd" clip-rule="evenodd" d="M59.3516 20.6845H61.7319V20.085H59.3516V20.6845ZM64.5131 20.6845H66.9936V20.085H64.5131V20.6845ZM59.3516 21.284H61.7319V20.6845H59.3516V21.284ZM64.5131 21.284H66.9936V20.6845H64.5131V21.284Z" fill="#CCCCCC"/>
<path fill-rule="evenodd" clip-rule="evenodd" d="M59.3516 21.8824H61.7319V21.2837H59.3516V21.8824ZM64.5131 21.8824H66.9936V21.2837H64.5131V21.8824ZM59.3516 22.5023H61.7319V21.8824H59.3516V22.5023ZM64.5131 22.5023H66.9936V21.8824H64.5131V22.5023ZM59.3516 23.1018H61.7319V22.5023H59.3516V23.1018ZM64.5131 23.1018H66.9936V22.5023H64.5131V23.1018Z" fill="#CCCCCC"/>
<path fill-rule="evenodd" clip-rule="evenodd" d="M59.4102 23.7011H61.9927C61.7812 23.3993 61.732 23.1016 61.732 23.1016H59.3516C59.3516 23.1016 59.3481 23.3432 59.4102 23.7011ZM64.4072 23.7011H66.9521C66.9808 23.5021 66.9909 23.3388 66.9936 23.2337V23.1016H64.5131C64.5131 23.1016 64.5419 23.3993 64.4072 23.7011ZM59.5603 24.2999H62.984C62.4816 24.2258 62.1762 23.9623 61.9927 23.7011H59.4102C59.4412 23.8775 59.4882 24.0821 59.5603 24.2999ZM63.5606 24.2999H66.819C66.885 24.0821 66.9257 23.8775 66.9517 23.7011H64.4068C64.2904 23.9623 64.0503 24.2258 63.5606 24.2999Z" fill="#CCCCCC"/>
<path fill-rule="evenodd" clip-rule="evenodd" d="M59.8143 24.8998H66.5837C66.6854 24.6968 66.7618 24.4934 66.8192 24.3003H63.5608C63.3696 24.3289 63.1754 24.3289 62.9842 24.3003H59.5605C59.6242 24.493 59.7064 24.6968 59.8143 24.8998Z" fill="#CCCCCC"/>
<path fill-rule="evenodd" clip-rule="evenodd" d="M60.2207 25.499H66.1966C66.3472 25.3147 66.4771 25.1135 66.5839 24.8994H59.8145C59.9279 25.114 60.0642 25.3151 60.2207 25.499ZM60.9055 26.0977H65.5312C65.781 25.9335 66.0054 25.7317 66.1966 25.499H60.2207C60.4192 25.7318 60.6499 25.9335 60.9055 26.0977Z" fill="#CCCCCC"/>
<path fill-rule="evenodd" clip-rule="evenodd" d="M65.531 26.0977H60.9053C61.4601 26.4552 62.2117 26.6972 63.2325 26.6972C64.2483 26.6972 64.9901 26.4556 65.531 26.0977Z" fill="#CCCCCC"/>
<path fill-rule="evenodd" clip-rule="evenodd" d="M60.8932 4.46438H65.4696C64.9156 4.10609 64.1609 3.86523 63.1327 3.86523C62.1549 3.86484 61.4305 4.10609 60.8932 4.46438ZM60.2285 5.06352H66.1509C65.954 4.83028 65.7244 4.62836 65.4696 4.46438H60.8932C60.6443 4.62975 60.4204 4.83161 60.2285 5.06352Z" fill="#CCCCCC"/>
<path fill-rule="evenodd" clip-rule="evenodd" d="M59.8308 5.66262H66.5494C66.4385 5.44848 66.3048 5.24755 66.151 5.06348H60.2285C60.0756 5.2481 59.9422 5.44895 59.8308 5.66262ZM59.5775 6.26177H66.7962C66.7312 6.05496 66.6485 5.85446 66.549 5.66262H59.8305C59.7303 5.85492 59.6457 6.05531 59.5775 6.26177ZM59.4238 6.86131H61.9489C62.1348 6.58224 62.477 6.32387 63.1121 6.32387C63.7578 6.32387 64.1058 6.58184 64.2928 6.86131H66.9398C66.9068 6.65819 66.8589 6.45791 66.7966 6.26217H59.5779C59.513 6.45797 59.4616 6.65817 59.4238 6.86131Z" fill="#CCCCCC"/>
<path fill-rule="evenodd" clip-rule="evenodd" d="M59.3532 7.45989H61.7375C61.7604 7.24572 61.8329 7.04028 61.949 6.86075H59.4239C59.373 7.13345 59.3579 7.34882 59.3532 7.45989ZM64.5074 7.45989H66.9937V7.41252C66.988 7.22742 66.97 7.04293 66.9398 6.86035H64.2929C64.4481 7.09085 64.4935 7.33568 64.5074 7.45989ZM59.3517 8.07973H61.7321V7.5423C61.7321 7.5423 61.7321 7.51125 61.7375 7.45989H59.3532C59.3509 7.51284 59.3517 7.5423 59.3517 7.5423V8.07973ZM64.5132 8.07973H66.9937V7.45989H64.5074C64.5136 7.51125 64.5136 7.5423 64.5136 7.5423V8.07973H64.5132Z" fill="#CCCCCC"/>
<path fill-rule="evenodd" clip-rule="evenodd" d="M59.3516 8.67962H61.7319V8.08008H59.3516V8.67962ZM64.5131 8.67962H66.9936V8.08008H64.5131V8.67962ZM59.3516 9.27877H61.7319V8.67962H59.3516V9.27877ZM64.5131 9.27877H66.9936V8.67962H64.5131V9.27877Z" fill="#CCCCCC"/>
<path fill-rule="evenodd" clip-rule="evenodd" d="M59.3516 9.87746H61.7319V9.27832H59.3516V9.87746ZM64.5131 9.87746H66.9936V9.27832H64.5131V9.87746ZM59.3516 10.477H61.7319V9.87786H59.3516V10.477ZM64.5131 10.477H66.9936V9.87786H64.5131V10.477Z" fill="#CCCCCC"/>
<path fill-rule="evenodd" clip-rule="evenodd" d="M59.3516 11.0762H61.7319V10.4771H59.3516V11.0762ZM64.5131 11.0762H66.9936V10.4771H64.5131V11.0762ZM59.3516 11.6753H61.7319V11.0762H59.3516V11.6753ZM64.5131 11.6753H66.9936V11.0762H64.5131V11.6753ZM59.3516 12.2745H61.7319V11.6753H59.3516V12.2745ZM64.5131 12.2745H66.9936V11.6753H64.5131V12.2745Z" fill="#CCCCCC"/>
<path fill-rule="evenodd" clip-rule="evenodd" d="M59.3516 12.8735H61.7319V12.2744H59.3516V12.8735ZM64.5131 12.8735H66.9936V12.2744H64.5131V12.8735Z" fill="#CCCCCC"/>
<path fill-rule="evenodd" clip-rule="evenodd" d="M59.3516 13.4731H61.7319V12.8735H59.3516V13.4731ZM64.5131 13.4731H66.9936V12.8735H64.5131V13.4731Z" fill="#CCCCCC"/>
<path fill-rule="evenodd" clip-rule="evenodd" d="M59.3516 14.0723H61.7319V13.4731H59.3516V14.0723ZM64.5131 14.0723H66.9936V13.4731H64.5131V14.0723ZM59.3516 14.6718H61.7319V14.0727H59.3516V14.6718ZM64.5131 14.6718H66.9936V14.0727H64.5131V14.6718ZM59.3516 15.2917H61.7319V14.6718H59.3516V15.2917ZM64.5131 15.2917H66.9936V14.6718H64.5131V15.2917Z" fill="#CCCCCC"/>
<path fill-rule="evenodd" clip-rule="evenodd" d="M59.3516 15.8906H61.7319V15.2915H59.3516V15.8906ZM64.5131 15.8906H66.9936V15.2915H64.5131V15.8906ZM59.3516 16.4898H61.7319V15.8906H59.3516V16.4898ZM64.5131 16.4898H66.9936V15.8906H64.5131V16.4898Z" fill="#CCCCCC"/>
<path fill-rule="evenodd" clip-rule="evenodd" d="M59.3516 17.0888H61.7319V16.4893H59.3516V17.0888ZM64.5131 17.0888H66.9936V16.4893H64.5131V17.0888ZM66.9936 17.5227V17.0888H64.5131V17.5227H66.9936ZM61.7319 17.0888H59.3516V17.5227H61.7319V17.0888Z" fill="#CCCCCC"/>
<path fill-rule="evenodd" clip-rule="evenodd" d="M19.439 4.62942H24.0512C23.5103 4.27232 22.7665 4.03027 21.7426 4.03027C20.7233 4.03027 19.9807 4.27232 19.439 4.62942ZM18.7725 5.22856H24.7139C24.5239 4.99531 24.3003 4.79326 24.0508 4.62942H19.439C19.1887 4.79356 18.964 4.99555 18.7725 5.22856Z" fill="#CCCCCC"/>
<path fill-rule="evenodd" clip-rule="evenodd" d="M18.3955 5.80745H25.0854C24.9826 5.6012 24.8579 5.40721 24.7137 5.229H18.7719C18.6262 5.40717 18.5 5.60114 18.3955 5.80745Z" fill="#CCCCCC"/>
<path fill-rule="evenodd" clip-rule="evenodd" d="M18.1557 6.40579H25.3205C25.26 6.19922 25.1815 5.99868 25.0858 5.80664H18.3959C18.2988 5.9987 18.2184 6.1992 18.1557 6.40579ZM18.0215 7.00533H20.6541C20.8353 6.75412 21.1689 6.50929 21.7824 6.50929C22.4152 6.50929 22.75 6.75412 22.9262 7.00533H25.4489C25.4215 6.8025 25.3787 6.60218 25.3209 6.40618H18.1557C18.0886 6.62633 18.0471 6.83135 18.0215 7.00533Z" fill="#CCCCCC"/>
<path fill-rule="evenodd" clip-rule="evenodd" d="M17.9809 7.5843H20.4416V7.5429C20.4416 7.5429 20.4629 7.2706 20.6538 7.00586H18.0212C17.9735 7.32872 17.9809 7.5429 17.9809 7.5429V7.5843ZM23.1222 7.5843H25.4828V7.41392C25.4788 7.27734 25.4673 7.1411 25.4483 7.00586H22.9255C23.1118 7.2706 23.1222 7.5429 23.1222 7.5429V7.5843ZM17.9809 8.18345H20.4416V7.5843H17.9809V8.18345ZM23.1222 8.18345H25.4828V7.5843H23.1222V8.18345Z" fill="#CCCCCC"/>
<path fill-rule="evenodd" clip-rule="evenodd" d="M17.9814 8.78323H20.4421V8.18408H17.9814V8.78323ZM23.1228 8.78323H25.4834V8.18408H23.1228V8.78323ZM17.9814 9.36167H20.4421V8.78323H17.9814V9.36167ZM23.1228 9.36167H25.4834V8.78323H23.1228V9.36167Z" fill="#CCCCCC"/>
<path fill-rule="evenodd" clip-rule="evenodd" d="M17.9814 9.96048H20.4421V9.36133H17.9814V9.96048ZM23.1228 9.96048H25.4834V9.36133H23.1228V9.96048ZM17.9814 10.5389H20.4421V9.96048H17.9814V10.5389ZM23.1228 10.5389H25.4834V9.96048H23.1228V10.5389Z" fill="#CCCCCC"/>
<path fill-rule="evenodd" clip-rule="evenodd" d="M17.9814 11.1386H20.4421V10.5391H17.9814V11.1386ZM23.1228 11.1386H25.4834V10.5391H23.1228V11.1386ZM17.9814 11.7378H20.4421V11.1386H17.9814V11.7378ZM23.1228 11.7378H25.4834V11.1386H23.1228V11.7378Z" fill="#CCCCCC"/>
<path fill-rule="evenodd" clip-rule="evenodd" d="M17.9814 12.3157H20.4421V11.7373H17.9814V12.3157ZM23.1228 12.3157H25.4834V11.7373H23.1228V12.3157Z" fill="#CCCCCC"/>
<path fill-rule="evenodd" clip-rule="evenodd" d="M17.9814 12.9155H20.4421V12.3159H17.9814V12.9155ZM23.1228 12.9155H25.4834V12.3159H23.1228V12.9155Z" fill="#CCCCCC"/>
<path fill-rule="evenodd" clip-rule="evenodd" d="M17.9814 13.5142H20.4421V12.915H17.9814V13.5142ZM23.1228 13.5142H25.4834V12.915H23.1228V13.5142Z" fill="#CCCCCC"/>
<path fill-rule="evenodd" clip-rule="evenodd" d="M17.9814 14.0926H20.4421V13.5142H17.9814V14.0926ZM23.1228 14.0926H25.4834V13.5142H23.1228V14.0926ZM17.9814 14.6917H20.4421V14.0926H17.9814V14.6917ZM23.1228 14.6917H25.4834V14.0926H23.1228V14.6917ZM17.9814 15.2913H20.4421V14.6921H17.9814V15.2913ZM23.1228 15.2913H25.4834V14.6921H23.1228V15.2913Z" fill="#CCCCCC"/>
<path fill-rule="evenodd" clip-rule="evenodd" d="M17.9814 15.8699H20.4421V15.2915H17.9814V15.8699ZM23.1228 15.8699H25.4834V15.2915H23.1228V15.8699ZM17.9814 16.4691H20.4421V15.8699H17.9814V16.4691ZM23.1228 16.4691H25.4834V15.8699H23.1228V16.4691Z" fill="#CCCCCC"/>
<path fill-rule="evenodd" clip-rule="evenodd" d="M17.9814 17.0684H20.4421V16.4692H17.9814V17.0684ZM23.1228 17.0684H25.4834V16.4692H23.1228V17.0684Z" fill="#CCCCCC"/>
<path fill-rule="evenodd" clip-rule="evenodd" d="M17.9814 17.6463H20.4421V17.0679H17.9814V17.6463ZM23.1228 17.6463H25.4834V17.0679H23.1228V17.6463ZM17.9814 18.2459H20.4421V17.6463H17.9814V18.2459ZM23.1228 18.2459H25.4834V17.6463H23.1228V18.2459Z" fill="#CCCCCC"/>
<path fill-rule="evenodd" clip-rule="evenodd" d="M17.9806 18.8245H20.4413V18.2461H17.9806V18.8245ZM23.122 18.8245H25.4826V18.2461H23.122V18.8245ZM17.9806 19.4241H20.4413V18.8245H17.9806V19.4241ZM23.122 19.4241H25.4826V18.8245H23.122V19.4241ZM14.8867 20.0228H25.4826V19.4241H23.122V19.5686H20.4413V19.4241H17.9806V19.5686H14.5996L14.8867 20.0228Z" fill="#CCCCCC"/>
<path fill-rule="evenodd" clip-rule="evenodd" d="M15.2526 20.6022H25.4826V20.0229H14.8867L15.2526 20.6022ZM15.6309 21.2009H25.4826V20.6022H15.2526L15.6309 21.2009Z" fill="#CCCCCC"/>
<path fill-rule="evenodd" clip-rule="evenodd" d="M16.0095 21.8003H25.4825V21.2012H15.6309L16.0095 21.8003ZM18.0807 22.3791H20.4013V22.0483H23.1821V22.3791H25.4825V21.8003H16.0095L16.1403 22.0073H18.0807V22.3791Z" fill="#CCCCCC"/>
<path fill-rule="evenodd" clip-rule="evenodd" d="M18.0811 22.9785H20.4017V22.3789H18.0811V22.9785ZM23.1825 22.9785H25.4829V22.3789H23.1825V22.9785Z" fill="#CCCCCC"/>
<path fill-rule="evenodd" clip-rule="evenodd" d="M18.0811 23.5768H20.4017V22.978H18.0811V23.5768ZM23.1825 23.5768H25.4829V22.978H23.1825V23.5768ZM18.0811 24.1552H20.4017V23.5768H18.0811V24.1552ZM23.1825 24.1552H25.4829V23.5768H23.1825V24.1552Z" fill="#CCCCCC"/>
<path fill-rule="evenodd" clip-rule="evenodd" d="M18.0811 24.7548H20.4017V24.1553H18.0811V24.7548ZM23.1825 24.7548H25.4829V24.1553H23.1825V24.7548ZM18.0811 25.3544H20.4017V24.7548H18.0811V25.3544ZM23.1825 25.3544H25.4829V24.7548H23.1825V25.3544ZM18.0811 25.9328H20.4017V25.3544H18.0811V25.9328ZM23.1825 25.9328H25.4829V25.3544H23.1825V25.9328Z" fill="#CCCCCC"/>
<path fill-rule="evenodd" clip-rule="evenodd" d="M18.0811 26.5314H20.4017V25.9326H18.0811V26.5314ZM23.1825 26.5314H25.4829V25.9326H23.1825V26.5314Z" fill="#CCCCCC"/>
</svg>
