<svg width="82" height="33" viewBox="0 0 82 33" fill="none" xmlns="http://www.w3.org/2000/svg">
<path fill-rule="evenodd" clip-rule="evenodd" d="M8.00036 9.0137C8.61529 8.47282 9.40674 8.20213 10.1099 8.20213C11.429 8.20213 12.7476 8.83357 14.0662 9.91582L14.6816 10.4572L16.4396 7.93144L15.9998 7.48014C14.3296 6.03713 12.5716 5.31513 10.5493 5.31513C9.05467 5.31513 7.64828 5.85651 6.2419 6.75863C4.83552 7.75082 3.95629 9.0132 3.69247 10.5468C3.34088 12.1704 3.69247 13.6134 4.83552 14.6957C5.53871 15.4177 6.68176 16.0491 8.35196 16.7701C9.58278 17.3115 10.3738 17.7623 10.7253 18.1235C11.1652 18.6649 11.3408 19.3854 11.1652 20.288C10.9892 21.1897 10.5498 21.9117 9.75834 22.3625C9.05515 22.9039 8.2637 23.0845 7.47273 23.0845C5.62649 23.0845 4.04455 22.2724 2.63721 20.4682L2.19783 19.8377L0 22.2724L0.439854 22.7232C1.14305 23.6259 2.10957 24.3479 3.3404 24.9783C4.65948 25.6097 5.88983 25.9715 7.12065 25.9715C8.70307 25.9715 10.1095 25.5197 11.4281 24.5275C12.9222 23.5353 13.8897 22.1819 14.1535 20.4682C14.5929 18.6649 14.1535 17.2209 13.0105 16.0491C12.3951 15.4177 11.1642 14.6957 9.40578 13.9742H9.318C7.29621 13.072 6.41698 12.0798 6.59254 10.9976C6.76954 10.186 7.20939 9.46451 8.00036 9.0137ZM26.198 0.0834961H23.2092L21.9783 5.76595H17.9347L17.3193 8.56239H21.3634L19.1656 19.2963C18.6379 21.7311 18.814 23.5353 19.781 24.6176C20.3964 25.5192 21.5394 25.971 23.0341 25.971C25.7591 25.971 28.1329 24.4369 30.2425 21.3703L30.8579 20.4677L27.8691 19.7467L27.6053 20.1975C26.2862 22.0913 24.8803 23.084 23.3857 23.084C22.7703 23.084 22.3304 22.9934 22.0666 22.6332C21.8028 22.2719 21.715 21.5499 21.9783 20.5577L24.44 8.56141H30.9457L31.5611 5.76497H24.9671L26.198 0.0834961ZM46.5934 7.3C45.5386 5.94657 44.1313 5.31513 42.286 5.31513C39.6483 5.31513 37.3627 6.48745 35.5164 8.65294C33.934 10.5473 32.8792 12.8924 32.3516 15.5983C31.4724 19.2063 31.9117 21.9122 33.4064 23.8961C34.549 25.2495 36.1319 25.9715 38.2414 25.9715C40.0877 25.9715 42.4606 25.4291 45.186 24.2578L45.8015 23.9866L45.0978 20.9205L44.3073 21.3713C42.1977 22.5441 40.2632 23.085 38.593 23.085C37.3622 23.085 36.4834 22.7237 35.9558 22.0918C35.0766 21.0996 34.8128 19.2963 35.1644 16.68H47.3839L47.5599 16.0491C48.3509 12.0803 47.9993 9.10376 46.5934 7.3ZM41.8452 8.20164C42.8131 8.20164 43.6036 8.56239 44.219 9.37445C45.0105 10.4572 45.2738 11.9002 44.9227 13.794H35.7798C36.2196 12.2605 37.0106 10.9976 38.0659 9.91533C39.2967 8.83308 40.527 8.20164 41.8452 8.20164ZM59.2518 5.31513C57.4943 5.31513 55.9109 5.94657 54.5928 7.20945V5.22556L51.6035 5.67638V6.39837C51.7795 8.20213 51.6035 10.3671 51.0759 12.7123L46.8562 32.9168H49.9338L51.603 24.9788C52.6974 25.6326 53.9418 25.9754 55.2082 25.972C57.054 25.972 58.9002 25.1599 60.5709 23.7169C62.7687 21.8221 64.1751 19.2973 64.8783 15.9595C65.6688 12.2614 65.3177 9.4655 63.7352 7.48063C62.5927 6.03713 61.0985 5.31513 59.2518 5.31513ZM54.329 11.4489C55.8241 9.28438 57.3182 8.20164 58.9007 8.20164C59.8677 8.20164 60.6591 8.65295 61.2736 9.37445C62.3284 10.6373 62.4166 12.7118 61.889 15.5077C61.2736 18.6649 60.0432 20.8294 58.1087 22.0918C57.1417 22.7232 56.0869 23.085 55.0322 23.085C54.0652 23.085 53.0986 22.6342 52.2189 21.7315L54.329 11.4489ZM74.5488 13.9746C72.4393 13.0725 71.4713 12.0803 71.7356 10.9981C71.9116 10.1865 72.351 9.46501 73.0537 9.0137C73.7574 8.47282 74.4611 8.20213 75.2515 8.20213C76.5706 8.20213 77.8888 8.83357 79.2078 9.91582L79.8232 10.4572L81.5817 7.93144L81.1423 7.48014C79.4721 6.03713 77.6254 5.31513 75.6919 5.31513C74.1968 5.31513 72.7904 5.85651 71.3835 6.75863C69.9771 7.75082 69.0984 9.0132 68.8346 10.5468C68.4835 12.1704 68.8346 13.6134 70.0654 14.6957C70.6808 15.3271 71.8239 16.0491 73.4941 16.7701L75.867 18.1235C76.3063 18.6649 76.4824 19.3854 76.3063 20.288C76.1313 21.1897 75.6036 21.9117 74.9 22.3625C74.1963 22.9039 73.4058 23.0845 72.6139 23.0845C70.7681 23.0845 69.1862 22.2724 67.8671 20.4682L67.3394 19.8377L65.2299 22.2724L65.581 22.7232C66.2847 23.6259 67.2512 24.3479 68.4825 24.9783C69.7133 25.6097 71.0314 25.9715 72.2627 25.9715C73.8452 25.9715 75.2511 25.5197 76.5702 24.5275C78.0643 23.5353 79.0313 22.1819 79.2956 20.4682C79.735 18.6649 79.2956 17.2209 78.2408 16.0491C77.5372 15.4181 76.3063 14.6962 74.5488 13.9746Z" fill="#00B307"/>
</svg>
